<?xml version="1.0" encoding="utf-8"?>
<!-- Generator: Adobe Illustrator 16.0.0, SVG Export Plug-In . SVG Version: 6.00 Build 0)  -->
<!DOCTYPE svg PUBLIC "-//W3C//DTD SVG 1.1//EN" "http://www.w3.org/Graphics/SVG/1.1/DTD/svg11.dtd">
<svg version="1.1" id="Layer_1" xmlns="http://www.w3.org/2000/svg" xmlns:xlink="http://www.w3.org/1999/xlink" x="0px" y="0px"
	 width="732.312px" height="175.262px" viewBox="0 0 732.312 175.262" enable-background="new 0 0 732.312 175.262"
	 xml:space="preserve">
<path fill="none" stroke="#EB974E" stroke-miterlimit="10" d="M731.812,161.541v12.479c-2.988,0.018-5.975,0.032-8.963,0.052
	c-0.556,0.004-1.155-0.063-1.357,0.668c-239.96,0-479.919-0.001-719.88,0.022c-0.9,0-1.168-0.196-1.102-1.104
	c0.089-1.232,0.022-2.478,0.022-3.718c0.482-2.586,1.082-5.146,0.934-7.822c-0.114-2.072,0.007-4.158-0.031-6.237
	c-0.017-0.965,0.336-1.38,1.328-1.357c1.759,0.043,3.52,0.012,5.28,0.007c1.792-0.004,1.799-0.007,1.799-1.819
	c0.002-11.32,0-22.641,0.003-33.96c0-1.88,0.014-1.895,1.847-1.897c3.32-0.005,6.641-0.029,9.96,0.012
	c1.037,0.013,1.457-0.365,1.402-1.404c-0.053-0.997,0.007-2-0.005-2.999c-0.009-0.729,0.277-1.122,1.053-1.121
	c3.96,0.008,7.92,0.008,11.88-0.001c0.762-0.002,1.081,0.358,1.072,1.102c-0.012,1.039,0.059,2.083-0.007,3.119
	c-0.072,1.131,0.333,1.592,1.506,1.549c1.877-0.067,3.759,0.01,5.639-0.022c0.927-0.017,1.308,0.367,1.272,1.285
	c-0.037,0.918-0.004,1.839-0.004,2.759c0.001,10.56-0.001,21.12,0.008,31.68c0,0.504-0.211,1.175,0.282,1.462
	c0.905,0.527,1.964,0.349,2.917,0.146c0.768-0.162,0.526-0.983,0.527-1.546c0.013-7.601,0.004-15.2,0.012-22.801
	c0.003-3.312-0.266-2.859,2.884-2.901c0.08-0.001,0.161-0.008,0.24-0.002c0.883,0.062,1.218-0.372,1.197-1.227
	c-0.029-1.238-0.009-2.479-0.002-3.72c0.009-1.72,0.046-1.765,1.735-1.768c4.36-0.008,8.72-0.032,13.08,0.016
	c1.157,0.013,1.562-0.396,1.52-1.538c-0.067-1.838-0.019-3.68-0.016-5.52c0.002-2.075,0.004-2.078,2.026-2.08
	c4-0.003,8-0.021,12,0.01c0.979,0.007,1.373-0.355,1.343-1.34c-0.045-1.519,0.052-3.043-0.027-4.559
	c-0.065-1.233,0.438-1.603,1.614-1.57c2.358,0.064,4.72,0.018,7.08,0.018c5.64,0,11.28-0.003,16.919,0.004
	c1.542,0.002,1.608,0.079,1.619,1.644c0.009,1.319,0.002,2.64,0.003,3.96c0.002,1.64,0,3.279,0.012,4.92
	c0.002,0.309-0.037,0.75,0.366,0.78c0.531,0.041,0.457-0.456,0.47-0.793c0.025-0.679,0.01-1.358,0.014-2.039
	c0.019-3.003-0.246-2.742,2.712-2.69c1.179,0.021,1.796-0.386,2.25-1.476c1.798-4.319,3.67-8.608,5.541-12.897
	c0.377-0.864,0.549-1.729,0.547-2.67c-0.018-7-0.016-14,0.003-21c0.001-0.657-0.281-1.665,0.823-1.652
	c1.072,0.012,0.68,1.01,0.682,1.59c0.03,7.04,0.024,14.08,0.014,21.12c-0.001,0.853,0.125,1.656,0.421,2.461
	c1.576,4.278,3.117,8.569,4.68,12.854c0.687,1.883,0.696,1.879,2.72,1.886c2.02,0.008,2.024,0.008,2.024,2.083
	c0.001,10.28-0.013,20.56,0.009,30.84c0.007,3.453-0.566,3.062,3.296,3.072c0.08,0,0.16-0.007,0.24-0.009
	c0.577-0.015,0.836-0.309,0.914-0.887c0.233-1.729,0.25-1.728,2.01-1.739c1.811-0.013,1.828-0.018,1.83-1.797
	c0.008-5.399,0.019-10.8-0.006-16.199c-0.004-0.983,0.272-1.46,1.355-1.455c6.44,0.031,12.88,0.024,19.319,0.007
	c0.923-0.003,1.302,0.358,1.278,1.279c-0.034,1.358-0.001,2.72,0,4.08c0,0.565,0.107,1.064,0.797,1.12
	c0.759,0.06,0.875,0.563,0.873,1.177c-0.001,0.479,0.015,0.96,0.016,1.439c0.001,0.629,0.291,0.932,0.939,0.985
	c1.265,0.105,1.555-0.139,1.594-1.423c0.038-1.237-0.369-2.613,0.175-3.673c0.542-1.058,0.501-2.047,0.539-3.098
	c0.029-0.8,0.029-1.601,0.008-2.399c-0.02-0.802,0.324-1.179,1.142-1.161c0.999,0.021,2,0.002,3-0.004
	c1.617-0.009,1.768-0.134,2.005-1.697c0.054-0.354,0.081-0.716,0.091-1.075c0.117-4.325-0.207-8.631-0.592-12.933
	c-0.176-1.961-0.148-2.051,1.817-2.052c5.24-0.005,10.48-0.025,15.72,0.016c1.124,0.009,1.615-0.329,1.55-1.506
	c-0.073-1.316,0.021-2.641-0.025-3.959c-0.036-1.019,0.242-1.636,1.402-1.518c0.941,0.097,1.278-0.381,1.255-1.288
	c-0.036-1.358,0.01-2.719-0.002-4.078c-0.006-0.742,0.307-1.152,1.069-1.096c1.093,0.081,1.358-0.489,1.337-1.467
	c-0.043-1.999,0.042-4.002-0.029-5.999c-0.044-1.242,0.567-1.453,1.617-1.448c1.031,0.006,1.673,0.17,1.635,1.431
	c-0.069,2.237-0.005,4.479-0.019,6.72c-0.005,0.752,0.203,1.265,1.067,1.231c0.848-0.032,1.108,0.438,1.094,1.204
	c-0.019,1,0.039,2.002-0.008,3s0.391,1.402,1.356,1.315c0.159-0.015,0.322,0.016,0.48-0.002c1.122-0.124,1.598,0.331,1.548,1.497
	c-0.068,1.557,0.014,3.119-0.022,4.679c-0.023,0.931,0.363,1.3,1.284,1.272c1.238-0.039,2.479-0.014,3.719-0.006
	c2.911,0.018,2.679-0.26,2.681,2.624c0.007,9.319,0.002,18.639,0.004,27.959c0,2.726-0.21,2.534,2.525,2.534
	c1.931,0,1.935-0.003,1.935-1.924c0.002-15.76,0.001-31.52,0.001-47.278c0-3.841-0.004-7.681,0.003-11.521
	c0.004-1.607,0.069-1.665,1.71-1.673c1.72-0.009,3.44-0.03,5.16,0.005c0.91,0.018,1.327-0.322,1.293-1.263
	c-0.038-1.078,0.027-2.16-0.01-3.239c-0.031-0.931,0.372-1.292,1.287-1.27c1.439,0.034,2.885-0.07,4.318,0.025
	c1.428,0.095,2.511-0.313,3.478-1.408c1.269-1.436,2.714-2.715,4.043-4.1c0.606-0.632,1.076-0.656,1.686-0.008
	c1.013,1.077,2.127,2.062,3.117,3.159c0.758,0.839,1.596,1.183,2.736,1.156c2.878-0.064,5.759,0,8.639-0.026
	c0.918-0.009,1.318,0.35,1.281,1.275c-0.037,0.918,0.03,1.841-0.009,2.76c-0.04,0.944,0.391,1.3,1.298,1.255
	c0.719-0.036,1.445,0.047,2.159-0.016c1.188-0.104,1.629,0.352,1.609,1.571c-0.06,3.639-0.024,7.279-0.015,10.919
	c0.001,0.438-0.101,1.013,0.129,1.284c0.772,0.912,0.558,1.953,0.581,2.967c0.025,1.119,0.017,2.24,0.012,3.36
	c-0.003,0.696,0.328,1.032,1.025,1.021c0.32-0.005,0.642,0.034,0.959,0.005c1.061-0.097,1.408,0.414,1.379,1.422
	c-0.047,1.639,0.047,3.282-0.029,4.918c-0.056,1.196,0.365,1.727,1.579,1.59c0.987-0.111,1.374,0.373,1.325,1.339
	c-0.042,0.838,0.036,1.682-0.014,2.519c-0.061,1.016,0.314,1.495,1.377,1.424c0.796-0.053,1.603,0.042,2.398-0.019
	c1.147-0.087,1.544,0.385,1.53,1.526c-0.047,3.919-0.037,7.84,0.004,11.759c0.007,0.625-0.406,1.734,0.666,1.717
	c1.04-0.019,0.636-1.12,0.637-1.749c0.026-12.6,0.019-25.2,0.02-37.8c0-2.295,0.001-2.295,2.264-2.323
	c1.501-0.019,1.568-0.074,1.572-1.566c0.009-3.079-0.002-6.159,0.007-9.239c0.004-1.606,0.068-1.659,1.711-1.672
	c0.72-0.007,1.44,0,2.16-0.002c1.879-0.006,1.884-0.007,1.884-1.856c0.002-12.28,0.044-24.56-0.04-36.839
	c-0.014-2.125,0.315-3.942,1.918-5.396c1.86-1.687,2.374-3.761,2.245-6.243c-0.259-4.972,0.791-3.549-3.595-5.735
	c-1.374-0.685-1.849-1.496-1.761-2.967c0.065-1.085,0.42-1.458,1.496-1.456c9.92,0.026,19.84,0.013,29.76,0.021
	c0.656,0,1.389-0.135,1.508,0.902c0.195,1.71,0.007,2.289-1.097,2.639c-1.219,0.386-2.448,0.745-3.68,1.091
	c-0.68,0.191-1.012,0.592-0.957,1.306c0.233,3.035,0.174,6.076,0.223,9.113c0.011,0.699,0.346,1.02,1.038,1.016
	c0.88-0.005,1.76,0.023,2.64,0.012c0.735-0.01,1.117,0.291,1.112,1.063c-0.011,2.038,0.002,4.078-0.006,6.118
	c-0.001,0.448-0.035,0.905-0.601,1.034c-0.414,0.095-0.791,0.231-0.762,0.755c0.025,0.452,0.368,0.573,0.737,0.653
	c0.641,0.138,0.625,0.648,0.622,1.131c-0.003,0.441,0.005,0.908-0.566,1.054c-0.347,0.089-0.77,0.137-0.754,0.613
	c0.017,0.476,0.445,0.495,0.795,0.567c0.549,0.11,0.666,0.521,0.664,0.99c-0.001,0.49-0.3,0.699-0.76,0.752
	c-0.223,0.024-0.502,0.008-0.536,0.446c1.267,0.123,1.192,1.063,1.182,2.008c-0.021,1.92,0.019,3.84-0.014,5.76
	c-0.015,0.908,0.316,1.342,1.26,1.295c0.758-0.038,1.519-0.009,2.279-0.003c1.7,0.012,1.735,0.047,1.748,1.758
	c0.002,0.36,0.001,0.72,0.001,1.08c0,23.879-0.003,47.759,0.003,71.639c0,3.116-0.318,2.786,2.857,2.799
	c1.837,0.008,1.841-0.005,1.841-1.897c0.003-8.759,0.019-17.52-0.017-26.279c-0.005-1.193,0.376-1.607,1.586-1.603
	c3.408,0.012,3.445-0.032,3.453-3.487c0.003-1.124,0.356-1.561,1.517-1.548c4.119,0.049,8.239,0.013,12.359,0.021
	c1.519,0.003,1.595,0.084,1.597,1.663c0.008,4.561,0.003,9.12,0.004,13.681c0,2.531,0,2.531,2.529,2.407
	c0.08-0.004,0.16-0.007,0.24-0.007c0.639,0,0.959-0.316,0.962-0.957c0.003-0.8,0.058-1.604,0.002-2.398
	c-0.079-1.117,0.424-1.49,1.486-1.443c1.238,0.054,2.483-0.044,3.719,0.025c1.138,0.063,1.554-0.352,1.543-1.514
	c-0.047-4.8-0.02-9.6-0.019-14.399c0.001-2.34,0.002-2.336,2.366-2.344c3.288-0.009,2.924,0.263,2.905-2.745
	c-0.007-0.979,0.367-1.404,1.341-1.342c0.668,0.043,1.11-0.253,1.053-0.973c-0.079-0.99,0.483-1.41,1.305-1.738
	c3.047-1.214,6.063-2.504,9.124-3.681c1.028-0.397,1.379-0.978,1.366-2.06c-0.049-4.479,0.141-8.968-0.081-13.437
	c-0.129-2.605,0.423-4.404,3.097-5.167c0.79-0.225,1.086-0.835,1.054-1.67c-0.045-1.198-0.014-2.399-0.007-3.599
	c0.009-1.635,0.114-1.751,1.517-1.744c1.34,0.006,1.445,0.124,1.457,1.684c0.007,0.96,0.014,1.92,0,2.88
	c-0.011,0.781,0.041,1.422,1.107,1.442c1.114,0.02,1.207-0.617,1.203-1.47c-0.017-3.36,0.008-6.721-0.013-10.08
	c-0.005-0.89,0.183-1.434,1.253-1.434c1.062,0,1.266,0.53,1.258,1.427c-0.024,2.72-0.008,5.439-0.006,8.159
	c0.002,2.974-0.189,2.691,2.634,2.652c1.098-0.015,1.473,0.401,1.459,1.478c-0.042,3.399,0.019,6.801-0.031,10.199
	c-0.016,1.121,0.323,1.656,1.503,1.548c0.634-0.058,1.28,0.015,1.919-0.006c0.809-0.024,1.166,0.338,1.153,1.149
	c-0.021,1.239-0.01,2.479,0.005,3.72c0.045,3.791-0.5,3.245,3.332,3.284c3.31,0.034,2.903-0.266,2.888,2.885
	c-0.006,1.107,0.401,1.473,1.481,1.457c1.889-0.026,1.895,0.023,1.896,1.952c0.002,8.76,0.001,17.52,0.001,26.28
	c0,0.438,0,0.879,0,1.318l0.143-0.005c0-0.438,0-0.877,0-1.314c0-17.24,0-34.48,0.001-51.72c0-0.479,0.013-0.96,0.013-1.439
	c-0.001-0.618,0.258-1.02,0.917-0.99c1.056,0.046,1.251-0.552,1.238-1.447c-0.031-2.199,0.043-4.4-0.028-6.599
	c-0.038-1.204,0.392-1.729,1.592-1.574c1.23,0.159,1.597-0.417,1.567-1.595c-0.064-2.558-0.018-5.119-0.014-7.679
	c0.001-0.627,0.023-1.259,0.886-1.271c0.875-0.014,1.037-0.547,1.031-1.279c-0.016-1.8-0.009-3.6,0.007-5.399
	c0.004-0.467-0.067-1.008,0.526-1.217c0.631-0.222,0.66-0.728,0.66-1.267c0.002-1.439,0.022-2.88,0.005-4.319
	c-0.009-0.792,0.308-1.174,1.133-1.172c4.56,0.015,9.119,0.015,13.68,0.002c0.833-0.004,1.135,0.396,1.122,1.181
	c-0.018,1.079,0.002,2.16,0.009,3.239c0.003,0.455,0.035,0.947,0.58,1.051c0.809,0.152,0.85,0.718,0.849,1.348
	c-0.001,1.72,0.035,3.44-0.007,5.159c-0.023,0.971,0.229,1.569,1.333,1.461c0.989-0.097,1.34,0.379,1.326,1.344
	c-0.036,2.439-0.011,4.88-0.008,7.32c0.003,1.852,0.006,1.909,1.847,1.874c1.146-0.022,1.561,0.392,1.529,1.535
	c-0.062,2.198-0.021,4.398-0.016,6.599c0.006,1.695,0.03,1.715,1.776,1.726c0.12,0.001,0.24,0,0.36,0.001
	c1.935,0.009,1.94,0.009,1.94,1.924c0.003,11.24,0.002,22.479,0.002,33.719c0,6.4-0.003,12.8,0.01,19.2
	c0,0.331-0.184,0.81,0.252,0.95c0.317,0.103,0.531-0.297,0.756-0.513c1.817-1.745,3.597-3.53,5.456-5.23
	c0.845-0.772,1.136-1.617,1.129-2.743c-0.039-6.879-0.023-13.759-0.014-20.639c0.001-1.321,0.314-1.559,1.552-1.46
	c1.127,0.09,0.93,0.916,0.931,1.596c0.013,7.08,0.021,14.16-0.005,21.24c-0.004,0.95,0.26,1.674,0.958,2.332
	c1.338,1.261,2.61,2.593,3.915,3.891c0.819,0.814,3.349,1.301,4.363,0.855c0.333-0.146,0.484-0.404,0.495-0.751
	c0.015-0.48,0.023-0.961,0.023-1.44c0.001-27.079,0.001-54.159,0.002-81.238c0-0.52,0.021-1.041,0.007-1.56
	c-0.018-0.753,0.335-1.095,1.087-1.087c1.12,0.013,2.24,0.002,3.36-0.01c1.464-0.014,1.53-0.085,1.544-1.594
	c0.008-0.88,0.016-1.76,0.012-2.64c-0.003-0.685,0.29-1.027,1.011-1.026c0.734,0.002,0.987,0.381,0.986,1.049
	c-0.002,1.04,0.024,2.08,0.013,3.12c-0.009,0.753,0.33,1.099,1.087,1.09c1.438-0.013,2.88-0.023,4.318,0.008
	c0.867,0.019,1.24-0.342,1.218-1.212c-0.026-1.119,0.008-2.24,0.015-3.36c0.006-0.937,0.667-0.951,1.336-0.945
	c0.653,0.007,1.345-0.034,1.362,0.916c0.011,0.601,0.02,1.2,0.021,1.8c0.004,2.061,0.123,2.276,1.259,2.263
	c2.116-0.028,2.241-0.161,2.245-2.368c0.001-1.32,0.019-2.641,0.008-3.96c-0.006-0.776,0.384-1.051,1.119-1.051
	s1.129,0.272,1.121,1.049c-0.011,1.12-0.006,2.24,0.011,3.359c0.049,3.317-0.516,3.028,3.105,3.079
	c1.456,0.021,1.632-0.176,1.558-1.571c-0.318-5.956-0.197-11.915-0.153-17.874h2.159c0.017,5.639,0.021,11.278,0.054,16.917
	c0.021,3.647-0.444,2.967,3.179,3.252c2.979,0.233,5.283-0.52,7.06-2.947c0.37-0.507,0.91-1.42,1.485-1.158
	c0.573,0.261,0.153,1.229,0.115,1.883c-0.081,1.414,0.25,1.853,1.651,1.869c1.076,0.014,2.156-0.076,3.232-0.154
	c0.933-0.069,1.29,0.338,1.278,1.259c-0.03,2.239-0.006,4.479-0.005,6.72c0.001,3.52,0.002,7.04,0.001,10.56
	c0,0.674,0.021,1.259,0.946,1.354c2.172,0.224,2.169,0.255,2.172,2.414c0,0.24,0.023,0.481-0.003,0.72
	c-0.122,1.121,0.416,1.456,1.481,1.439c2.959-0.046,5.919-0.017,8.879-0.015c2.119,0.001,2.122,0.003,2.122,2.104
	c0.001,16.56-0.008,33.119,0.009,49.678c0.003,3.229-0.602,2.948,3.196,2.93c0.705-0.003,1.006-0.343,1.021-1.032
	c0.01-0.425-0.124-1.02,0.342-1.195c0.975-0.369,0.854-1.132,0.854-1.883c0.003-4.641,0.021-9.28-0.01-13.92
	c-0.007-1.024,0.354-1.421,1.396-1.413c4.641,0.034,9.28,0.035,13.921,0c1.075-0.008,1.387,0.456,1.361,1.446
	c-0.043,1.72,0.023,3.441-0.021,5.16c-0.025,0.988,0.373,1.357,1.349,1.335c1.879-0.043,3.759-0.014,5.639-0.01
	c1.884,0.005,1.895,0.017,1.902,1.845c0.004,1.08,0.045,2.162-0.01,3.239c-0.052,1.035,0.355,1.427,1.397,1.409
	c2.56-0.046,5.12-0.017,7.681-0.013c1.967,0.003,1.972,0.006,1.972,2.014c0.001,16.039,0,32.079,0.002,48.118
	c0,0.439,0.008,0.88,0.017,1.319c0.009,0.342,0.115,0.74,0.453,0.765c1.295,0.093,1.245,0.991,1.212,1.891
	c-0.03,0.854,0.437,1.104,1.205,1.094c1.641-0.019,3.282-0.049,4.919,0.014c1.093,0.041,1.501-0.364,1.472-1.463
	c-0.057-2.078-0.007-4.159-0.012-6.239c-0.002-0.683,0.174-1.181,0.991-1.179c2.799,0.005,5.6,0.004,8.399-0.001
	c0.704-0.002,1.015,0.344,1.012,1.032c-0.005,0.96,0.004,1.92,0.012,2.881c0.015,1.508,0.08,1.587,1.546,1.591
	c3.08,0.008,6.16,0.008,9.24,0c1.532-0.003,1.589-0.065,1.593-1.663c0.008-2.681-0.002-5.36,0.013-8.04
	c0.003-0.543-0.091-1.214,0.711-1.296c0.884-0.091,0.964-0.663,0.961-1.361c-0.01-2.12-0.005-4.24-0.001-6.36
	c0.004-1.842,0.007-1.89,1.829-1.899c1.018-0.006,1.322-0.444,1.3-1.387c-0.04-1.6-0.005-3.2-0.006-4.801
	c0-0.639,0.058-1.212,0.896-1.28c0.695-0.058,0.774-0.579,0.775-1.137c0-1.359-0.002-2.72,0.006-4.08
	c0.01-1.683,0.051-1.729,1.773-1.729c6.6-0.005,13.199-0.003,19.8-0.003c2.16,0.001,4.32,0.031,6.479-0.008
	c0.988-0.019,1.367,0.385,1.33,1.353c-0.042,1.118-0.001,2.24,0.001,3.36c0.002,0.524,0.125,0.987,0.745,1.037
	c0.823,0.065,0.926,0.604,0.924,1.26c-0.004,1.8-0.001,3.6,0.008,5.399c0.003,0.437-0.118,0.958,0.187,1.28
	c0.947,0.998,0.765,2.211,0.769,3.397c0.006,1.64,0.053,3.281-0.016,4.919c-0.047,1.138,0.352,1.577,1.516,1.544
	c1.561-0.044,1.612,0.062,1.617,1.624c0.01,2.84,0.027,5.68-0.007,8.519c-0.011,0.959,0.313,1.415,1.319,1.363
	c0.917-0.048,1.839-0.013,2.759-0.006c1.623,0.013,1.686,0.067,1.69,1.692c0.007,3.48,0,6.961,0.004,10.44
	c0.002,1.775,0.011,1.779,1.835,1.785c0.96,0.002,1.92,0.001,2.88,0c1.85-0.002,1.842-0.002,1.544-1.784
	c-0.284-1.698-0.503-3.4-0.388-5.131c0.067-1.014,0.519-1.539,1.591-1.489c0.878,0.041,1.759-0.001,2.639,0.007
	c1.572,0.014,1.644,0.078,1.654,1.608c0.012,1.72,0.021,3.439,0.003,5.159c-0.009,0.813,0.343,1.172,1.152,1.149
	c0.84-0.021,1.681,0.001,2.521,0c1.96-0.003,2.013-0.005,1.971-1.989c-0.024-1.16,0.31-1.67,1.559-1.634
	c1.813,0.056,1.819-0.015,1.819-1.896c0.003-5.521-0.002-11.039,0.004-16.56c0.002-1.612,0.068-1.672,1.704-1.679
	c1.999-0.008,3.999,0.002,5.999-0.005c1.583-0.005,1.647-0.065,1.652-1.605c0.008-2.841,0.032-5.681-0.009-8.52
	c-0.016-1.036,0.375-1.419,1.407-1.404c2.919,0.041,5.84,0.044,8.759-0.002c1.078-0.017,1.493,0.362,1.477,1.459
	c-0.046,3.159-0.02,6.32-0.011,9.48c0.004,1.476,0.079,1.547,1.584,1.551c3,0.008,6,0,9,0.005c1.876,0.002,1.89,0.014,1.891,1.854
	c0.004,6.479,0.023,12.96-0.016,19.438c-0.007,1.154,0.389,1.546,1.534,1.525c3.039-0.058,6.079-0.025,9.119-0.014
	c0.469,0.003,1.134-0.214,1.359,0.183c0.283,0.494-0.444,0.734-0.679,1.123c-0.076,0.125-0.133,0.263-0.329,0.658H731.812z"/>
<path fill="#4D4D4D" d="M433.012,18.74c0.001,1.12,0.012,2.239,0.001,3.359c-0.009,0.837,0.104,1.6,0.945,2.045
	c0.515,0.274,0.491,0.78,0.492,1.262c0.005,1.561-0.009,3.119,0.01,4.68c0.018,1.488,0.293,1.871,1.732,2.07
	c0.852,0.118,0.903,0.616,0.901,1.259c-0.003,2.318-0.006,4.638,0.003,6.957c0.007,1.894,0.344,2.296,2.181,2.35
	c0.887,0.025,1.196,0.37,1.186,1.228c-0.03,2.199-0.024,4.398,0,6.598c0.016,1.513,0.512,1.985,2.029,2.027
	c0.36,0.011,0.721,0.017,1.08,0.011c0.645-0.012,0.962,0.293,0.954,0.941c-0.005,0.44,0.007,0.88,0.007,1.32
	c0.001,25.351,0.001,50.703-0.001,76.054c0,1-0.058,1.994,0.559,2.89c0.162,0.235,0.151,0.615,0.153,0.93
	c0.013,2.359-0.018,4.719,0.021,7.077c0.015,0.92-0.314,1.308-1.256,1.276c-1.398-0.047-2.8-0.055-4.198,0.002
	c-1.023,0.042-1.311-0.411-1.294-1.361c0.041-2.319-0.03-4.641,0.031-6.957c0.028-1.108-0.285-1.57-1.479-1.556
	c-4.397,0.057-8.797,0.052-13.194,0.003c-1.118-0.013-1.442,0.396-1.438,1.472c0.032,7.837,0.001,15.675,0.034,23.512
	c0.005,1.092-0.353,1.465-1.451,1.463c-1.214-0.003-1.218-0.699-1.217-1.564c0.009-10.077,0.018-20.154-0.001-30.23
	c-0.007-3.496,0.465-2.992-3.072-3.029c-1.999-0.02-3.999-0.033-5.998,0.009c-0.943,0.019-1.26-0.362-1.254-1.279
	c0.028-4.199,0.017-8.398,0.006-12.596c-0.002-0.644,0.086-1.163,0.783-1.444c0.734-0.296,0.893-0.969,0.895-1.687
	c0.006-1.56,0.007-3.119,0.007-4.679c0.001-15.875,0.005-31.75-0.011-47.624c-0.001-1.036-0.08-1.951,1.308-2.228
	c0.76-0.152,0.855-0.974,0.857-1.683c0.005-2.078,0.037-4.158-0.008-6.237c-0.021-0.971,0.209-1.472,1.319-1.473
	c1.319-0.002,1.785-0.534,1.802-1.863c0.03-2.399,0.027-4.798,0.004-7.197c-0.007-0.775,0.061-1.38,0.978-1.646
	c0.817-0.238,0.945-1.004,0.946-1.762c0.003-1.559,0.011-3.119,0.002-4.678c-0.003-0.655,0.033-1.248,0.648-1.699
	c0.527-0.386,0.554-1.028,0.553-1.642c-0.001-1.56,0.002-3.119,0.004-4.679H433.012z"/>
<path fill="#4D4D4D" d="M145.251,125.06c5.911-0.001,11.822-0.004,17.734-0.003c1.704,0.001,1.706,0.007,1.709,1.756
	c0.002,0.918-0.016,1.837-0.002,2.756c0.011,0.702-0.308,1.022-1.011,1.013c-0.959-0.014-1.918,0.026-2.876-0.001
	c-0.803-0.024-1.191,0.292-1.152,1.123c0.029,0.637,0.004,1.277,0.002,1.917c-0.006,1.756-0.006,1.762-1.703,1.763
	c-4.234,0.002-8.467-0.002-12.701-0.003V125.06z"/>
<path fill="#4D4D4D" d="M330.53,111.257c0-4.278,0.026-8.558-0.019-12.836c-0.011-1.086,0.342-1.465,1.446-1.465
	c3.562-0.001,3.594-0.038,3.593-3.556c0-1.06,0.296-1.502,1.428-1.483c3.398,0.058,6.798,0.051,10.196,0.003
	c1.063-0.015,1.384,0.386,1.376,1.409c-0.038,4.679-0.021,9.358-0.013,14.036c0.003,1.889,0.441,2.309,2.335,2.333
	c3.33,0.042,2.931-0.449,2.937,2.928c0.015,8.598-0.009,17.195,0.023,25.793c0.003,1.001-0.263,1.755-1.015,2.422
	c-0.895,0.797-1.693,1.7-2.561,2.527c-0.599,0.57-1.093,1.151-1.025,2.056c0.045,0.603-0.377,0.872-0.895,0.923
	c-0.842,0.08-1.002,0.574-1.013,1.315c-0.027,1.878-0.053,1.836-1.939,1.895c-1.275,0.039-2.528-0.19-3.802,0.573
	c-1.277,0.766-2.168,0.03-2.171-1.482c-0.006-2.28-0.028-4.561,0.01-6.838c0.015-0.915-0.2-1.463-1.254-1.405
	c-0.964,0.053-0.916-0.678-0.916-1.331c-0.002-3.879,0.001-7.758-0.003-11.637c-0.002-1.636-0.02-1.648-1.697-1.653
	c-1.239-0.004-2.481-0.045-3.718,0.011c-1.001,0.045-1.324-0.368-1.317-1.341C330.549,120.056,330.53,115.657,330.53,111.257"/>
<path fill="#4D4D4D" d="M251.981,80.184c-2.879,0-5.758,0.032-8.636-0.019c-1.047-0.018-1.433,0.36-1.386,1.398
	c0.061,1.316-0.009,2.639,0.019,3.958c0.018,0.812-0.317,1.118-1.134,1.152c-2.712,0.112-2.71,0.137-2.711,2.908
	c0,1.24-0.034,2.481,0.01,3.719c0.031,0.904-0.284,1.295-1.239,1.298c-1.643,0.005-1.645,0.053-1.65,1.684
	c-0.004,1.279-0.031,2.56,0.007,3.838c0.026,0.887-0.357,1.255-1.217,1.181c-0.04-0.005-0.08,0-0.12,0.001
	c-2.991,0.075-2.99,0.075-2.991,3.121c0,0.998-0.021,1.998,0.001,2.997c0.017,0.758-0.306,1.1-1.071,1.082
	c-0.999-0.021-2.002,0.051-2.997-0.014c-1.08-0.069-1.491,0.318-1.472,1.436c0.056,3.236,0.02,6.477,0.019,9.715
	c0,6.717,0.003,13.435-0.002,20.151c-0.001,1.611-0.082,1.705-1.717,1.582c-1.671-0.127-3.335-0.339-5.005-0.477
	c-0.814-0.066-0.956-0.557-0.953-1.231c0.002-0.67,0.344-0.926,0.972-0.922c0.76,0.005,1.521,0.019,2.279-0.019
	c1.226-0.061,1.704-0.556,1.771-1.795c0.024-0.438,0.01-0.879,0.01-1.319c0.001-19.112,0-38.224,0.001-57.336
	c0-1.933,0.002-1.935,1.894-1.937c1.319-0.001,2.639,0.008,3.958-0.002c1.874-0.013,2.293-0.444,2.307-2.359
	c0.005-0.759,0.028-1.521-0.002-2.278c-0.034-0.833,0.352-1.139,1.155-1.125c1.478,0.026,2.959-0.015,4.437,0.011
	c0.857,0.016,1.541-0.269,2.139-0.883c1.311-1.346,2.672-2.644,3.974-3.998c0.702-0.729,1.304-0.783,2.016-0.022
	c0.874,0.933,1.825,1.795,2.701,2.727c0.648,0.689,1.392,0.993,2.341,0.981c2.518-0.032,5.037-0.013,7.556-0.01
	c1.764,0.002,1.763,0.006,1.769,1.821c0.001,0.561-0.018,1.121,0.012,1.679c0.068,1.226,0.559,1.696,1.799,1.771
	c0.12,0.007,0.24,0.005,0.36,0.007c2.868,0.051,2.869,0.051,2.868,2.882c0,2.999,0,5.997-0.001,8.996
	c-0.001,0.659,0.034,1.311-0.938,1.323c-0.948,0.012-0.988-0.587-0.986-1.277c0.006-1.719-0.033-3.438,0.011-5.156
	c0.024-0.946-0.367-1.263-1.282-1.253C257.899,80.205,254.94,80.184,251.981,80.184"/>
<path fill="#4D4D4D" d="M195.894,109.209c0,0.44,0,0.879,0,1.319c0,2.025,0.002,2.044-2.016,2.296
	c-0.597,0.075-0.853,0.352-0.855,0.924c-0.001,0.359-0.008,0.719-0.008,1.079c-0.001,7.355,0.001,14.71-0.003,22.065
	c0,1.571-0.037,1.599-1.619,1.609c-0.119,0-0.239,0-0.359,0c-2.399-0.013-2.426,0.206-2.34-2.204
	c0.033-0.911-0.403-1.245-1.238-1.149c-1.131,0.128-1.531-0.408-1.407-1.469c0.116-0.993-0.242-1.532-1.329-1.426
	c-0.868,0.085-1.086-0.426-1.074-1.189c0.039-2.602,0.236-2.396-2.504-2.401c-2.558-0.005-5.117-0.029-7.675,0.012
	c-0.962,0.016-1.409-0.295-1.348-1.307c0.056-0.916,0.05-1.84,0.002-2.756c-0.05-0.953,0.376-1.291,1.286-1.242
	c0.797,0.042,1.6-0.03,2.397,0.013c1.315,0.071,1.99-0.611,2.297-1.805c0.191-0.741,0.267-1.489,0.272-2.254
	c0.026-3.915-0.013-7.825-0.458-11.724c-0.216-1.893-0.09-1.981,1.792-1.982c4.876-0.002,9.754,0.032,14.63-0.024
	c1.206-0.014,1.696,0.364,1.569,1.578C195.836,107.844,195.894,108.53,195.894,109.209"/>
<path fill="#4D4D4D" d="M586.711,156.257c-2.318,0.001-4.637,0.031-6.955-0.015c-0.996-0.02-1.342,0.368-1.321,1.344
	c0.045,2.036-0.017,4.076,0.024,6.114c0.018,0.915-0.291,1.31-1.245,1.263c-1.196-0.06-2.398-0.043-3.596-0.005
	c-0.796,0.024-1.172-0.24-1.167-1.09c0.021-3.997,0.019-7.993,0-11.99c-0.005-0.818,0.326-1.149,1.142-1.14
	c1.998,0.024,3.997,0.018,5.996,0c1.565-0.013,1.97-0.425,1.981-2.015c0.016-1.838,0.038-3.678-0.008-5.515
	c-0.022-0.956,0.283-1.39,1.3-1.358c1.798,0.054,3.598,0.047,5.396,0.002c0.956-0.023,1.289,0.388,1.237,1.293
	c-0.042,0.717-0.014,1.439-0.005,2.158c0.019,1.672,0.396,2.07,2.044,2.076c3.438,0.012,6.876,0.047,10.312-0.02
	c1.203-0.022,1.611,0.356,1.585,1.573c-0.069,3.316-0.055,6.635-0.006,9.952c0.016,1.077-0.325,1.586-1.438,1.454
	c-0.275-0.032-0.562,0.019-0.839-0.007c-0.963-0.091-1.399,0.293-1.351,1.301c0.054,1.117-0.023,2.238,0.018,3.356
	c0.033,0.89-0.343,1.157-1.21,1.176c-3.59,0.074-3.589,0.1-3.589-3.467c0-1.559,0.002-3.117-0.001-4.676
	c-0.003-1.763-0.006-1.765-1.829-1.767C591.027,156.254,588.869,156.256,586.711,156.257"/>
<path fill="#4D4D4D" d="M644.456,157.694c0.001-2.999,0.027-5.998-0.014-8.996c-0.015-0.989,0.348-1.347,1.332-1.325
	c4.122,0.092,3.414-0.546,3.466,3.367c0.038,2.839-0.001,5.678,0.012,8.518c0.007,1.648,0.403,2.032,2.076,2.044
	c1.719,0.011,3.439,0.02,5.158-0.005c1.55-0.023,2.021-0.604,1.766-2.109c-0.281-1.654-0.537-3.311-0.621-4.99
	c-0.045-0.9,0.27-1.373,1.229-1.295c0.357,0.029,0.72,0.021,1.079,0.004c0.767-0.036,1.08,0.326,1.07,1.081
	c-0.02,1.56-0.009,3.119,0,4.678c0.012,1.802,0.368,2.147,2.207,2.158c1.279,0.007,2.56,0.024,3.839-0.004
	c0.803-0.017,1.173,0.292,1.157,1.124c-0.028,1.639-0.025,3.279,0,4.918c0.014,0.8-0.287,1.174-1.121,1.16
	c-1.719-0.028-3.439-0.034-5.157,0.003c-0.908,0.019-1.157-0.403-1.17-1.241c-0.028-1.885-0.061-1.886-1.938-1.886
	c-2.879-0.001-5.758,0.027-8.636-0.015c-0.995-0.015-1.458,0.263-1.442,1.351c0.027,1.778-0.03,1.786-1.786,1.781
	c-2.774-0.007-2.494,0.241-2.504-2.523C644.448,162.892,644.455,160.292,644.456,157.694"/>
<path fill="#4D4D4D" d="M465.896,135.293c0,8.596,0.005,17.191-0.011,25.788c-0.001,0.554,0.281,1.375-0.491,1.556
	c-0.914,0.214-1.924,0.317-2.817-0.102c-0.433-0.203-0.283-0.792-0.284-1.221c-0.008-4.157-0.005-8.316-0.005-12.475
	c0-13.113-0.003-26.228,0.013-39.341c0-0.559-0.293-1.368,0.437-1.592c0.906-0.278,1.929-0.324,2.822,0.05
	c0.543,0.227,0.329,0.929,0.33,1.428c0.01,8.356,0.007,16.712,0.007,25.068C465.896,134.733,465.896,135.013,465.896,135.293"/>
<path fill="#4D4D4D" d="M730.603,167.774c0,1.32-0.017,2.64,0.006,3.96c0.013,0.756-0.306,1.089-1.071,1.083
	c-2.399-0.017-4.8-0.017-7.198,0.001c-0.758,0.005-1.089-0.307-1.084-1.072c0.017-2.64,0.016-5.279,0-7.92
	c-0.006-0.756,0.306-1.089,1.07-1.083c2.4,0.018,4.8,0.018,7.2,0c0.756-0.006,1.096,0.307,1.083,1.071
	C730.586,165.134,730.603,166.454,730.603,167.774"/>
<path fill="#4D4D4D" d="M709.251,160.832c1.277-0.001,2.556-0.014,3.832,0.008c0.425,0.007,0.973-0.017,0.925,0.639
	c-0.041,0.552-0.538,0.494-0.924,0.529c-1.915,0.171-1.915,0.168-1.917,2.042c-0.001,0.919,0.015,1.837-0.006,2.755
	c-0.023,1.129-0.523,1.472-1.93,1.491c-1.012,0.013-1.204-0.574-1.174-1.394c0.002-0.04,0.003-0.08-0.001-0.119
	c-0.09-0.861,0.344-1.883-0.254-2.552c-0.586-0.656-1.592-0.245-2.409-0.291c-1.148-0.066-0.922-0.894-0.929-1.572
	c-0.006-0.689-0.189-1.538,0.954-1.536C706.696,160.834,707.975,160.833,709.251,160.832"/>
<path fill="#4D4D4D" d="M209.185,105.594v6.409c0,0,0.479,0.479,1.292,0.854c0.812,0.375,1.375,0.125,1.25,3.375s0,23.01,0,23.01
	h4.125v-33.648H209.185z"/>
<path fill="#636363" d="M505.972,19.7c0.347,1.416,1.391,1.854,2.695,1.891c0.84,0.023,1.681,0.022,2.52-0.002
	c0.714-0.022,1.021,0.303,1.021,1c-0.004,5.599-0.005,11.199,0.001,16.798c0.001,0.947-0.634,0.957-1.311,0.957
	c-4.319-0.003-8.638-0.001-12.958-0.001c-3.477,0.001-3.477,0-3.486,3.467c-0.005,1.808-0.005,1.812-1.777,1.813
	c-2.881,0.002-5.761,0-8.64,0.001c-2.061,0-2.062,0.001-2.062,2.009c-0.001,16.038-0.001,32.076-0.001,48.114
	c0,21.357,0.002,42.715-0.01,64.071c-0.001,0.611,0.309,1.463-0.34,1.776c-0.862,0.417-1.893,0.298-2.819,0.062
	c-0.59-0.149-0.426-0.793-0.429-1.249c-0.012-3.719-0.004-7.438-0.009-11.157c-0.002-1.586-0.037-1.622-1.604-1.625
	c-2.84-0.006-5.681-0.033-8.52,0.014c-1.022,0.017-1.475-0.306-1.408-1.374c0.064-1.036,0.014-2.079,0.014-3.119
	c0-39.634,0-79.269,0-118.904c0-0.439,0.034-0.883-0.005-1.318c-0.09-1.001,0.36-1.327,1.334-1.318
	c3.584,0.036,7.169,0.011,10.754,0.017c0.93,0.001,1.855,0.046,2.458-0.888c0.204-0.316,0.534-0.312,0.85-0.125
	c1.192,0.704,2.494,0.702,3.717,0.286c1.379-0.468,2.577,0.272,3.867,0.294c0.04,0,0.08,0.018,0.119,0.018
	c4.072,0.009,8.088,0.968,12.186,0.672c1.547-0.112,2.245-1.221,3.122-2.178H505.972z"/>
<path fill="#636363" d="M2.691,155.78c2.032-0.001,4.065,0.028,6.097-0.016c0.945-0.021,1.384,0.269,1.361,1.289
	c-0.05,2.189-0.05,4.384,0,6.574c0.023,1.02-0.416,1.31-1.361,1.289c-2.032-0.044-4.065-0.016-6.097-0.017V155.78z"/>
<path fill="#636363" d="M79.007,146.765c0-5.92-0.029-11.839,0.024-17.758c0.011-1.227-0.397-1.621-1.594-1.564
	c-1.716,0.082-3.439-0.006-5.158,0.029c-0.879,0.018-1.205-0.34-1.2-1.209c0.023-4.159,0.029-8.319-0.003-12.479
	c-0.007-0.976,0.433-1.223,1.315-1.218c3.88,0.026,7.76,0.014,11.639,0.008c1.992-0.003,2.405-0.413,2.416-2.37
	c0.006-1.239,0.04-2.48-0.01-3.719c-0.038-0.954,0.277-1.366,1.295-1.362c7.4,0.028,14.799,0.025,22.199,0.003
	c0.94-0.003,1.268,0.357,1.256,1.277c-0.035,2.639,0.011,5.28-0.02,7.919c-0.014,1.26,0.242,2.242,1.739,2.358
	c0.43,0.033,0.626,0.314,0.647,0.725c0.017,0.319,0.022,0.64,0.022,0.959c0.001,11.079,0.002,22.159,0.001,33.238
	c-0.001,1.777-0.005,1.779-1.809,1.782c-0.96,0.001-1.92-0.021-2.88,0.001c-0.759,0.018-1.044-0.316-1.087-1.073
	c-0.157-2.77-0.177-2.768-2.976-2.768c-1.8,0-3.601,0.047-5.399-0.018c-1.083-0.038-1.479,0.327-1.468,1.441
	c0.048,4.519-0.003,9.039,0.036,13.558c0.009,1.057-0.187,1.721-1.429,1.592c-0.719-0.073-1.001,0.341-0.986,1.027
	c0.015,0.639-0.028,1.281,0.001,1.919c0.037,0.833-0.352,1.148-1.155,1.124c-0.999-0.029-2.001-0.03-3,0
	c-0.818,0.026-1.15-0.323-1.141-1.14c0.023-2.16-0.022-4.32,0.016-6.479c0.016-0.923-0.318-1.297-1.258-1.276
	c-1.919,0.045-3.84,0.031-5.759,0.007c-0.809-0.012-1.187,0.305-1.148,1.132c0.029,0.638,0.004,1.278,0.002,1.919
	c-0.006,1.719-0.041,1.758-1.597,1.754c-1.479-0.004-1.528-0.053-1.53-1.7c-0.003-3.92-0.001-7.84-0.001-11.759
	C79.007,150.685,79.007,148.725,79.007,146.765"/>
<path fill="#636363" d="M551.808,136.388c0-10.797,0.001-21.594-0.001-32.392c0-1.726-0.006-1.729-1.737-1.731
	c-1.96-0.004-3.92-0.03-5.878,0.01c-0.923,0.02-1.323-0.321-1.271-1.26c0.046-0.837-0.028-1.682,0.016-2.519
	c0.048-0.915-0.298-1.311-1.247-1.282c-1.558,0.045-3.119-0.021-4.678,0.02c-0.904,0.024-1.301-0.283-1.294-1.239
	c0.029-4.559,0.025-9.118,0.003-13.676c-0.004-0.885,0.355-1.196,1.217-1.19c3.919,0.023,7.838,0.023,11.757,0
	c0.868-0.006,1.23,0.318,1.21,1.197c-0.036,1.56-0.022,3.119-0.001,4.68c0.021,1.525,0.505,2.022,2.01,2.043
	c1.761,0.023,3.52,0.003,5.279,0.01c1.549,0.006,1.576,0.038,1.583,1.645c0.005,0.96-0.016,1.92,0.009,2.88
	c0.037,1.43,0.533,1.931,1.987,1.944c2.559,0.024,5.119,0.045,7.678-0.007c1.052-0.022,1.383,0.37,1.382,1.401
	c-0.021,16.194-0.015,32.391-0.021,48.587c0,0.354-0.026,0.727-0.143,1.056c-0.102,0.294-0.429,0.324-0.722,0.282
	c-0.46-0.067-0.554-0.413-0.56-0.793c-0.018-0.96-0.036-1.92-0.018-2.879c0.017-0.766-0.326-1.075-1.082-1.071
	c-3.119,0.015-6.238,0.023-9.356-0.004c-1.094-0.01-1.077,0.681-1.076,1.442c0.005,5.879,0.002,11.757,0.002,17.636
	c0,2.719-0.028,5.438,0.013,8.156c0.016,0.973-0.313,1.408-1.315,1.34c-0.756-0.053-1.524-0.066-2.277,0.004
	c-1.188,0.109-1.489-0.424-1.486-1.538C551.82,158.222,551.808,147.305,551.808,136.388"/>
<path fill="#636363" d="M461.334,135.367c0,8.517-0.001,17.035,0.001,25.552c0,0.914-0.086,1.827,0.666,2.582
	c0.451,0.452-0.015,0.633-0.393,0.648c-0.878,0.033-1.759,0.037-2.637,0.003c-0.823-0.033-0.756-0.685-0.758-1.24
	c-0.007-2.919-0.004-5.838-0.005-8.757c0-2.319-0.027-4.64,0.011-6.958c0.016-0.933-0.342-1.267-1.269-1.265
	c-8.838,0.021-17.676,0.023-26.513-0.003c-1.039-0.004-1.28,0.449-1.276,1.381c0.024,5.519,0.014,11.036,0.011,16.556
	c-0.001,1.749-0.005,1.769-1.713,1.753c-3.56-0.034-3.019,0.456-3.104-3.017c-0.028-1.172,0.434-2.484-0.828-3.4
	c-0.172-0.125-0.113-0.606-0.114-0.922c-0.005-7.559,0.013-15.116-0.023-22.673c-0.005-1.105,0.376-1.461,1.462-1.447
	c3.758,0.048,7.519,0.048,11.276,0c1.085-0.014,1.497,0.337,1.463,1.445c-0.064,2.117-0.032,4.238-0.011,6.358
	c0.016,1.526,0.506,2.022,2.008,2.046c1.479,0.024,2.959,0.019,4.438,0.004c1.718-0.016,2.177-0.479,2.178-2.244
	c0.007-9.557,0.125-19.115-0.069-28.67c-0.058-2.877,0.579-5.015,2.84-6.833c1.704-1.37,3.148-3.064,4.691-4.632
	c0.507-0.515,0.86-0.635,1.451-0.007c1.696,1.806,3.452,3.56,5.244,5.272c0.73,0.696,0.991,1.441,0.988,2.435
	C461.321,118.011,461.334,126.689,461.334,135.367"/>
<path fill="#636363" d="M703.493,150.953c0,3.838-0.036,7.676,0.022,11.512c0.017,1.169-0.404,1.521-1.534,1.498
	c-2.876-0.06-5.755,0.013-8.632-0.035c-1.043-0.019-1.438,0.351-1.391,1.393c0.062,1.316-0.008,2.639,0.021,3.956
	c0.017,0.808-0.305,1.166-1.13,1.152c-1.639-0.029-3.278-0.035-4.916,0.002c-0.902,0.021-1.181-0.389-1.172-1.234
	c0.025-2.638-0.034-5.276,0.026-7.914c0.026-1.118-0.395-1.469-1.472-1.436c-1.996,0.06-3.997-0.008-5.994,0.024
	c-0.876,0.015-1.268-0.336-1.191-1.205c0.004-0.04-0.001-0.08-0.001-0.12c0.011-2.438,0.147-2.318-2.268-2.27
	c-0.968,0.02-1.353-0.308-1.347-1.311c0.031-5.557,0.028-11.112,0.003-16.667c-0.004-0.945,0.366-1.27,1.281-1.251
	c1.997,0.038,3.996,0.023,5.995,0.004c1.586-0.016,2.076-0.501,2.087-2.088c0.02-2.678,0.039-5.356-0.009-8.033
	c-0.019-1.025,0.312-1.438,1.375-1.409c2.157,0.059,4.317,0.053,6.475,0.003c1.011-0.022,1.316,0.394,1.305,1.354
	c-0.038,2.957-0.021,5.915-0.01,8.873c0.007,1.813,0.455,2.258,2.276,2.264c2.918,0.011,5.836,0.039,8.753-0.014
	c1.082-0.021,1.48,0.332,1.467,1.441C703.462,143.278,703.493,147.116,703.493,150.953"/>
<path fill="#636363" d="M193.97,126.706c0-3.797,0.019-7.594-0.013-11.391c-0.008-0.977,0.135-1.586,1.34-1.584
	c1.228,0.002,1.555-0.901,1.553-1.988c-0.007-3.757,0.019-7.514-0.013-11.271c-0.009-1.045-0.01-1.87,1.414-1.914
	c0.883-0.027,1.217-0.81,1.227-1.654c0.014-1.159,0.028-2.318,0.007-3.477c-0.014-0.729,0.136-1.206,1.007-1.299
	c1.088-0.114,1.398-0.918,1.396-1.902c-0.004-1.918-0.006-3.837,0.011-5.755c0.003-0.335-0.125-0.898,0.3-0.92
	c0.589-0.032,0.398,0.576,0.402,0.922c0.024,1.998,0.031,3.997,0.008,5.995c-0.013,1.113,0.247,1.989,1.516,2.198
	c0.572,0.095,0.639,0.526,0.642,0.99c0.007,0.839-0.007,1.679,0.014,2.519c0.036,1.463,0.488,1.995,1.938,1.975
	c1.118-0.016,1.445,0.409,1.433,1.48c-0.045,3.916-0.021,7.833-0.015,11.75c0.002,1.834,0.107,1.992,1.909,2.402
	c0.636,0.145,0.72,0.536,0.722,1.046c0.005,1.319,0.006,2.639,0.006,3.957c0.001,6.275,0.003,12.55-0.001,18.825
	c-0.001,1.572-0.039,1.609-1.617,1.61c-4.597,0.004-9.194-0.026-13.79,0.021c-1.142,0.012-1.519-0.176-1.461-1.507
	c0.158-3.67,0.054-7.352,0.054-11.029H193.97z"/>
<path fill="#636363" d="M165.117,143.783c-2.919,0-5.838,0.04-8.755-0.021c-1.136-0.022-1.572,0.338-1.53,1.504
	c0.057,1.612-0.017,1.629-1.573,1.635c-1.959,0.005-3.918,0.003-5.877-0.004c-0.531-0.002-1.081,0.003-1.147-0.735
	c-0.246-2.733-1.068-5.399-0.773-8.2c0.165-1.57,0.066-1.619,1.633-1.621c3.719-0.005,7.437,0.003,11.155-0.005
	c1.913-0.003,2.343-0.431,2.358-2.306c0.022-2.723-0.274-2.479,2.541-2.491c0.24-0.001,0.48,0,0.72,0c2.176,0,2.174,0,2.539,2.163
	c0.033,0.193,0.085,0.393,0.171,0.569c0.407,0.836,1.856,1.165,3.505,0.818c0.948-0.199,1.304-0.84,1.316-1.737
	c0.012-0.88,0.029-1.76,0.008-2.639c-0.017-0.746,0.284-1.099,1.058-1.096c3.039,0.015,6.077,0.014,9.116-0.001
	c0.731-0.003,1.153,0.251,1.106,1.04c-0.081,1.372,0.161,2.498,1.863,2.62c0.455,0.031,0.533,0.442,0.53,0.816
	c-0.009,1.243,0.521,1.979,1.833,2.015c0.536,0.015,0.806,0.3,0.804,0.831c-0.01,2.323,0.819,2.275-1.903,2.283
	c-1.664,0.005-1.723,0.023-1.644,1.675c0.194,4.026,0.425,8.05,0.665,12.072c0.084,1.405-0.052,1.586-1.478,1.612
	c-1.605,0.03-1.621,0.038-1.623,1.606c-0.005,4.118-0.001,8.236-0.002,12.354c0,0.32-0.007,0.639-0.009,0.959
	c-0.003,0.569-0.235,0.907-0.857,0.898c-0.642-0.01-0.808-0.402-0.809-0.946c-0.003-1.879-0.006-3.758-0.008-5.637
	c-0.001-0.721-0.022-1.44,0-2.159c0.023-0.763-0.319-1.112-1.078-1.073c-0.239,0.013-0.48-0.002-0.72-0.002
	c-2.762-0.008-2.762-0.008-2.762-2.831c0-4.158-0.033-8.317,0.02-12.474c0.015-1.15-0.369-1.54-1.518-1.517
	C171.035,143.824,168.076,143.783,165.117,143.783"/>
<path fill="#636363" d="M288.775,96.37c0,8.357,0.001,16.716-0.001,25.072c-0.001,1.679-0.02,1.697-1.649,1.701
	c-1.879,0.005-3.759-0.03-5.637,0.013c-0.941,0.022-1.376-0.252-1.374-1.283c0.023-12.836,0.02-25.672,0.003-38.508
	c-0.001-0.916,0.31-1.271,1.252-1.285c2.359-0.035,2.595-0.313,2.597-2.653c0.003-2.799,0.03-5.599-0.014-8.397
	c-0.015-1,0.27-1.454,1.354-1.428c4.112,0.102,3.44-0.546,3.458,3.376C288.802,80.775,288.775,88.572,288.775,96.37"/>
<path fill="#636363" d="M409.487,147.926c0-6.837-0.002-13.675,0.001-20.512c0.001-1.599,0.036-1.632,1.592-1.636
	c2.119-0.008,4.239,0.031,6.357-0.017c0.996-0.022,1.438,0.261,1.434,1.348c-0.028,10.396-0.025,20.792-0.003,31.188
	c0.002,0.974-0.322,1.434-1.317,1.326c-0.119-0.013-0.24-0.001-0.36,0c-3.135,0.017-3.135,0.017-3.135,3.214
	c0,1.999-0.032,3.999,0.012,5.998c0.022,0.952-0.274,1.382-1.296,1.36c-3.873-0.081-3.256,0.469-3.275-3.197
	C409.464,160.641,409.487,154.285,409.487,147.926"/>
<path fill="#636363" d="M360.533,130.23c0,7.874-0.005,15.748,0.007,23.622c0.001,0.848-0.064,1.49-1.187,1.464
	c-1.355-0.029-1.451-0.166-1.356-1.527c0.144-2.063,0.299-4.129,0.152-6.206c-0.072-1.02-0.575-1.291-1.518-1.435
	c-1.688-0.257-3.346,0.17-5.015,0.031c-0.486-0.04-1.113,0.194-1.328-0.493c-0.178-0.569-0.049-1.105,0.401-1.54
	c0.259-0.249,0.51-0.507,0.759-0.766c4.07-4.222,3.276-2.142,3.308-8.077c0.052-9.513,0.013-19.026,0.014-28.539
	c0.001-1.862,0.003-1.862,1.844-1.866c0.639-0.001,1.279,0,1.919,0c1.998,0.002,2,0.002,2,1.949
	C360.534,114.642,360.533,122.436,360.533,130.23"/>
<path fill="#696A6D" d="M45.168,163.296c0-2.037,0.036-4.075-0.015-6.11c-0.025-1.002,0.274-1.449,1.354-1.426
	c3.45,0.074,2.961-0.35,2.983,2.892c0.025,3.555-0.032,7.11,0.027,10.663c0.019,1.165-0.288,1.651-1.541,1.612
	c-3.204-0.1-2.776,0.316-2.806-2.838C45.155,166.491,45.168,164.894,45.168,163.296"/>
<polyline fill="#636363" points="338.518,151.836 342.768,151.836 342.768,158.419 338.518,158.419 "/>
<path fill="none" stroke="#3C3C3C" stroke-miterlimit="10" d="M316.852,9.621c0.068,0.522-0.286,0.702-0.687,0.827
	c-0.572,0.179-1.148,0.344-1.724,0.511c-1.227,0.354-1.912,1.154-1.889,2.444c0.061,3.396,0.127,6.792,0.252,10.187
	c0.051,1.382,0.892,2.082,2.41,2.098c2.513,0.024,2.362-0.248,2.358,2.441c-0.002,1.169,0.253,2.397-0.967,3.244
	c-0.268,0.187-0.467,0.739-0.415,1.079c0.236,1.527,0.083,3.041,0.044,4.563c-0.013,0.506,0.139,1.014-0.003,1.534
	c-0.197,0.723-0.009,1.461,0.549,1.854c0.808,0.568,0.804,1.298,0.798,2.107c-0.012,1.641-0.022,3.28,0.004,4.92
	c0.028,1.72,0.787,2.455,2.513,2.504c2.76,0.078,2.759,0.078,2.759,2.875c0,23.52,0.001,47.038,0.001,70.558
	c0,0.399-0.005,0.8,0.002,1.2c0.031,1.884,0.751,2.632,2.614,2.644c2.8,0.02,5.6,0.005,8.4,0.007
	c1.94,0.001,1.942,0.002,1.943,1.888c0.002,3.319,0.014,6.64-0.006,9.96c-0.007,1.211,0.246,2.232,1.521,2.696
	c0.762,0.276,0.641,0.93,0.642,1.515c0.006,4.68,0.074,9.36-0.022,14.039c-0.062,3.034,1.803,3.294,3.939,2.903
	c1.151-0.21,1.586-1.128,1.594-2.238c0.013-1.921,0.038-3.842-0.003-5.761c-0.021-0.943,0.362-1.312,1.28-1.249
	c0.557,0.039,1.12,0.022,1.679-0.003c1.449-0.065,2.158-0.633,2.292-2.088c0.085-0.916,0.575-1.183,1.31-1.203
	c1.918-0.053,3.838-0.057,5.757-0.079c0.659-0.007,0.937,0.349,0.921,0.979c-0.039,1.597,0.074,3.195-0.169,4.789
	c-0.51,3.346,1.59,3.646,3.827,3.256c0.978-0.17,1.466-0.922,1.563-1.89c0.048-0.477,0.03-0.959,0.03-1.439
	c0.001-21.399,0.001-42.798,0.001-64.197c0-1.954,0.002-1.954,1.994-1.958c2.685-0.005,3.107-0.382,3.278-3.061
	c0.039-0.607,0.239-0.958,0.842-1.121c0.852-0.23,1.421-0.824,1.495-1.688c0.07-0.834,0.548-1.15,1.218-1.422
	c2.853-1.153,5.694-2.337,8.544-3.498c1.698-0.69,2.063-1.199,2.066-3.072c0.007-5,0.027-10-0.017-14.999
	c-0.01-1.027,0.306-1.689,1.279-2.015c0.038-0.012,0.071-0.036,0.107-0.054c2.295-1.164,2.59-1.243,5.086-1.226
	c0.773,0.006,1.515-0.051,2.175-0.516c1.128-0.796,2.313-0.121,3.458-0.055c0.501,0.029,0.391,0.713,0.392,1.134
	c0.011,2.96,0.004,5.92,0.009,8.88c0.003,2.364,0.631,3.004,2.954,3.032c1.574,0.021,1.596,0.039,1.603,1.626
	c0.006,1.4-0.024,2.801,0.016,4.2c0.044,1.512,0.809,2.265,2.319,2.323c0.919,0.034,1.84,0.035,2.759,0.007
	c0.808-0.025,1.125,0.303,1.16,1.127c0.109,2.595,0.133,2.602,2.658,3.216c0.415,0.101,0.644,0.304,0.662,0.717
	c0.022,0.479,0.027,0.959,0.027,1.439c0.001,28.639,0,57.277,0.001,85.917c0,0.519-0.024,1.043,0.028,1.558
	c0.129,1.254,0.683,1.757,1.954,1.783c1.079,0.021,2.16,0.015,3.239,0.004c1.607-0.015,2.175-0.541,2.2-2.156
	c0.036-2.239,0.055-4.48-0.005-6.72c-0.029-1.09,0.345-1.506,1.448-1.458c1.598,0.07,3.2,0.044,4.8,0.009
	c0.857-0.018,1.264,0.295,1.22,1.187c-0.038,0.758-0.019,1.52-0.001,2.279c0.038,1.737,0.773,2.494,2.479,2.536
	c0.881,0.021,1.762,0.02,2.641,0.001c1.784-0.035,2.538-0.78,2.544-2.592c0.016-5.119,0.005-10.239,0.008-15.359
	c0.001-1.717,0.006-1.722,1.747-1.723c7.599-0.002,15.199-0.002,22.799,0.001c1.579,0.001,1.614,0.037,1.616,1.612
	c0.004,4.6-0.003,9.2,0.004,13.799c0.003,1.722,0.147,1.862,1.835,1.866c2.2,0.005,4.4,0.001,6.599,0.001
	c2.356,0,2.358-0.001,2.358-2.307c0.002-3.879-0.002-7.759,0.002-11.639c0.002-1.635,0.02-1.65,1.696-1.654
	c2.12-0.003,4.239,0.034,6.358-0.014c0.995-0.022,1.333,0.359,1.322,1.337c-0.038,3.319-0.019,6.64-0.011,9.959
	c0.005,2.182,0.691,2.862,2.868,2.876c0.439,0.003,0.881,0.015,1.319-0.009c1.448-0.079,2.19-0.813,2.273-2.253
	c0.026-0.479,0.011-0.959,0.011-1.439c0.001-36.559,0.001-73.116,0.001-109.676c0-0.359-0.001-0.72,0-1.08
	c0.008-1.679,0.021-1.696,1.649-1.7c2.68-0.005,5.359,0.007,8.04-0.005c2.087-0.008,2.774-0.715,2.79-2.833
	c0.019-2.652-0.258-2.439,2.469-2.441c4.999-0.005,9.999,0.025,14.999-0.022c1.146-0.011,1.538,0.361,1.52,1.515
	c-0.037,2.484,0.608,3.063,3.139,3.065c2.479,0.002,4.96-0.001,7.439,0.001c1.875,0.001,1.879,0.003,1.879,1.831
	c0.001,8.88,0.001,17.759,0.001,26.639c0,7.721-0.002,15.439,0,23.159c0.001,2.477,0.624,3.085,3.138,3.09
	c0.72,0.001,1.439,0.001,2.159-0.005c1.111-0.01,1.952-0.451,2.278-1.569c0.175-0.605,0.524-0.833,1.13-0.825
	c1.479,0.018,2.96,0.016,4.439,0.003c0.705-0.007,1.039,0.31,1.01,1.014c-0.007,0.159,0.003,0.32,0.005,0.48
	c0.039,3.146,0.446,3.543,3.645,3.543c1.359,0.001,2.72,0.022,4.079-0.005c0.8-0.017,1.206,0.285,1.157,1.121
	c-0.023,0.397-0.001,0.799-0.001,1.198c0,20.839,0,41.68,0.001,62.519c0,0.439-0.015,0.881,0.013,1.318
	c0.087,1.438,0.83,2.18,2.287,2.234c1.038,0.039,2.08,0.029,3.119,0.007c1.712-0.037,2.473-0.793,2.488-2.524
	c0.023-2.64,0.007-5.279,0.008-7.919c0-5.521,0.03-11.04-0.022-16.56c-0.013-1.218,0.382-1.622,1.586-1.571
	c1.957,0.081,3.919,0.047,5.879,0.014c0.867-0.015,1.269,0.315,1.205,1.196c-0.027,0.358-0.009,0.721,0.001,1.08
	c0.045,1.734,0.765,2.464,2.492,2.529c1.574,0.061,1.582,0.061,1.583,1.648c0.004,4.999,0.001,9.999,0.002,14.999
	c0,0.359-0.017,0.721,0.007,1.08c0.04,0.624-0.012,1.53,0.771,1.5c0.712-0.028,0.358-0.912,0.407-1.417
	c0.457-4.706,0.188-9.427,0.237-14.141c0.01-0.916,0.313-1.299,1.257-1.279c1.919,0.044,3.84,0.024,5.759,0.007
	c1.603-0.017,2.092-0.495,2.11-2.069c0.021-1.8,0.046-3.601-0.008-5.4c-0.03-1.009,0.284-1.46,1.361-1.422
	c1.757,0.063,3.521,0.057,5.278,0.003c1.006-0.029,1.373,0.377,1.308,1.348c-0.048,0.717-0.021,1.439-0.003,2.158
	c0.036,1.512,0.519,2.011,2.039,2.02c3.439,0.019,6.88,0.051,10.319-0.015c1.21-0.023,1.604,0.367,1.58,1.578
	c-0.069,3.319-0.057,6.641-0.006,9.959c0.016,1.078-0.326,1.584-1.44,1.455c-0.315-0.035-0.641,0.018-0.959-0.007
	c-0.854-0.063-1.261,0.283-1.225,1.177c0.04,0.998,0.011,2,0.01,2.999c-0.001,0.504,0.047,0.968,0.655,1.124
	c0.756,0.196,0.382,0.954,0.78,1.614c0-1.614,0.017-3.001-0.006-4.388c-0.012-0.749,0.293-1.048,1.06-1.104
	c1.997-0.142,2.538-0.77,2.54-2.831c0.006-6.84,0.007-13.679-0.003-20.519c-0.002-0.862,0.007-1.62,0.925-2.146
	c0.655-0.376,0.76-1.175,0.759-1.924c-0.003-1.92,0.021-3.84-0.007-5.76c-0.013-0.828,0.139-1.323,1.141-1.417
	c1.347-0.127,1.935-0.878,1.975-2.271c0.038-1.359,0.015-2.72,0.016-4.079c0.001-0.536,0.049-1.031,0.599-1.337
	c0.83-0.463,1.07-1.246,1.074-2.134c0.006-1.12,0.027-2.24,0-3.359c-0.019-0.789,0.263-1.174,1.108-1.173
	c7.92,0.015,15.839,0.013,23.759,0.004c0.77-0.001,1.083,0.338,1.063,1.089c-0.021,0.8-0.009,1.601,0.012,2.399
	c0.018,0.752,0.221,1.467,0.905,1.854c0.677,0.382,0.775,0.942,0.767,1.616c-0.017,1.279,0.006,2.56-0.007,3.84
	c-0.01,0.896,0.073,1.759,0.666,2.493c0.329,0.406,0.294,0.898,0.295,1.377c0.004,2.08-0.011,4.16,0.008,6.239
	c0.015,1.722,0.504,2.367,2.172,2.583c1.033,0.135,0.94,0.787,0.94,1.465c0.004,4.84,0.002,9.68,0.002,14.52
	c0.001,5-0.004,9.999,0.003,14.999c0.003,2.188,0.688,2.869,2.859,2.884c0.4,0.003,0.801,0.002,1.2,0.001
	c2.467-0.005,2.919-0.394,3.125-2.854c0.062-0.718,0.367-0.986,1.051-0.983c2.359,0.011,4.72,0.014,7.079,0
	c0.713-0.003,0.947,0.335,1.019,1.02c0.181,1.751,0.816,2.312,2.554,2.333c1.72,0.021,3.44,0.021,5.16,0
	c1.804-0.021,2.563-0.766,2.578-2.556c0.022-2.68,0.04-5.36-0.009-8.04c-0.018-1.018,0.298-1.488,1.369-1.411
	c0.876,0.064,1.761,0.028,2.64,0.015c0.677-0.011,0.995,0.248,1.062,0.972c0.199,2.146,0.742,2.615,2.872,2.625
	c1.521,0.007,3.041,0.029,4.561-0.007c0.872-0.02,1.218,0.326,1.206,1.202c-0.03,2.279,0.015,4.56-0.015,6.839
	c-0.014,1.091,0.372,1.611,1.544,1.583c2.359-0.056,4.721-0.044,7.079-0.005c1.027,0.017,1.474-0.411,1.458-1.417
	c-0.016-0.999,0.02-2-0.001-2.999c-0.014-0.732,0.249-1.118,1.039-1.115c3.72,0.014,7.44,0.012,11.16,0.003
	c0.709-0.002,1.026,0.32,1.004,1.021c-0.011,0.358-0.008,0.721,0.018,1.079c0.098,1.351,0.816,2.277,2.149,2.286
	c2.514,0.02,3.919-0.717,3.855-3.219c-0.079-3.088-0.005-3.09,3.117-3.09c1,0.001,2,0.022,3,0c0.771-0.017,1.07,0.337,1.065,1.088
	c-0.017,2.521,0.02,5.041-0.021,7.561c-0.018,1.129-0.865,1.888-1.978,1.914c-0.359,0.009-0.719,0.003-1.079,0.003
	c-111.156,0-222.311,0.001-333.467-0.012c-0.936,0-2.02,0.36-2.66-0.787c-0.075-0.136-0.443-0.148-0.675-0.149
	c-5.715-0.007-11.432-0.006-17.152,0.222c1.434,0,2.867-0.001,4.301,0.001c0.52,0.001,1.04,0,1.56,0.021
	c0.233,0.009,0.562,0.019,0.587,0.296c0.036,0.397-0.348,0.363-0.604,0.386c-0.356,0.033-0.719,0.021-1.078,0.021
	c-88.756,0.001-177.514,0.001-266.27,0c-0.815,0-1.663,0.159-2.187-0.785c-0.16-0.288-0.671-0.171-1.027-0.171
	c-6.16-0.003-12.319-0.003-18.479,0.001c-0.515,0-1.066-0.063-1.323,0.565c-0.151,0.368-0.496,0.36-0.813,0.376
	c-0.319,0.018-0.639,0.015-0.959,0.015c-18.479,0-36.959,0.001-55.438-0.005c-0.736,0-1.497,0.159-2.006-0.7
	c-0.253-0.429-0.887-0.25-1.358-0.25c-5.079-0.009-10.158-0.006-15.238-0.008v-4.8c0.772-1.923,0.772-1.922,2.977-1.923
	c1.24,0,2.48,0.021,3.719-0.009c1.594-0.039,2.346-0.789,2.415-2.357c0.017-0.398,0.007-0.8,0.007-1.199
	c0-14.119-0.001-28.238,0-42.357c0-1.833,0.004-1.835,1.875-1.836c2.92-0.003,5.84,0.013,8.759-0.008
	c1.793-0.014,2.526-0.773,2.563-2.575c0.012-0.6,0.028-1.201,0-1.799c-0.038-0.816,0.317-1.151,1.136-1.145
	c2.76,0.022,5.52,0.021,8.28,0c0.803-0.006,1.194,0.293,1.154,1.125c-0.029,0.6-0.006,1.2-0.002,1.801
	c0.017,2.119,0.703,2.822,2.787,2.838c1.279,0.009,2.559,0,3.839,0.003c1.769,0.004,1.773,0.005,1.773,1.817
	c0.001,16.119,0,32.238,0.002,48.357c0,0.479-0.013,0.963,0.042,1.438c0.084,0.72,0.451,1.181,1.247,1.179
	c1.519-0.005,3.039-0.009,4.559,0.004c0.853,0.007,1.237-0.469,1.311-1.246c0.046-0.477,0.034-0.959,0.034-1.438
	c0.001-12.72,0-25.438,0.001-38.157c0-1.814,0.003-1.814,1.837-1.876c1.709-0.06,2.444-0.804,2.477-2.542c0.02-1,0.028-2,0.002-3
	c-0.021-0.783,0.248-1.185,1.1-1.181c3.919,0.021,7.839,0.018,11.759,0.003c0.765-0.002,1.085,0.327,1.071,1.083
	c-0.021,1.08-0.024,2.161,0.008,3.24c0.046,1.583,0.801,2.348,2.38,2.387c1.399,0.035,2.799,0.01,4.199,0.013
	c1.806,0.003,1.81,0.004,1.811,1.779c0.001,11.119,0,22.238,0.001,33.358c0,0.439-0.017,0.881,0.015,1.319
	c0.095,1.317,0.813,2.046,2.111,2.168c3.028,0.286,3.801-0.398,3.869-3.424c0.002-0.079,0.008-0.16,0.002-0.239
	c-0.062-0.829,0.341-1.152,1.147-1.127c0.959,0.029,1.921,0.043,2.879-0.004c0.931-0.047,1.289,0.333,1.267,1.264
	c-0.041,1.759-0.036,3.52,0.004,5.279c0.034,1.518,0.801,2.273,2.308,2.333c0.919,0.035,1.84,0.013,2.76,0.011
	c2.398-0.005,2.964-0.541,3.074-2.913c0.022-0.479-0.04-1.015,0.585-1.167c1.009-0.246,1.108-0.972,1.103-1.843
	c-0.01-1.837-0.38-3.75,0.159-5.491c0.539-1.743,0.53-3.451,0.55-5.199c0.011-0.96,0.027-1.92-0.002-2.879
	c-0.025-0.809,0.303-1.168,1.13-1.152c1.439,0.03,2.882,0.063,4.318-0.012c1.125-0.058,1.564,0.312,1.552,1.487
	c-0.016,1.591,0.79,2.315,2.385,2.36c0.999,0.029,2,0.011,3,0.01c2.643-0.003,3.218-0.582,3.218-3.248
	c0.001-12.839,0-25.68,0.002-38.519c0-1.632,0.019-1.691,1.555-1.66c1.512,0.031,2.456-0.593,3.044-2.003
	c1.521-3.651,3.121-7.271,4.69-10.902c0.155-0.358,0.202-0.91,0.651-0.915c0.539-0.006,0.563,0.592,0.707,0.984
	c1.331,3.643,2.652,7.287,3.977,10.932c0.554,1.522,1.238,2.063,2.686,2.128c1.646,0.072,1.652,0.072,1.652,1.699
	c0.003,10.279,0.001,20.559,0.002,30.839c0,0.439-0.018,0.882,0.017,1.318c0.104,1.31,0.829,2.059,2.145,2.124
	c1.117,0.057,2.239,0.021,3.359,0.018c1.229-0.005,2.083-0.541,2.35-1.788c0.279-1.309,1.298-0.748,2.039-0.822
	c0.779-0.077,0.845,0.497,0.906,1.107c0.146,1.444,0.757,2.156,2.064,2.191c2.438,0.065,4.88,0.052,7.318,0.008
	c1.136-0.021,1.974-0.662,2.04-1.806c0.069-1.204,0.697-1.303,1.648-1.298c4.88,0.026,9.76,0.046,14.639-0.011
	c1.212-0.015,1.597,0.373,1.578,1.581c-0.062,3.959-0.012,7.919-0.031,11.879c-0.004,0.856,0.081,1.539,1.192,1.465
	c0.496-0.033,0.744,0.268,0.717,0.746c-0.055,1.01,0.534,1.233,1.371,1.149c1.017-0.102,1.33,0.389,1.3,1.347
	c-0.049,1.558-0.013,3.119-0.012,4.679c0,2.623,0,2.623,2.592,2.617c1.936-0.005,1.96-0.024,1.962-1.928
	c0.003-3.801-0.003-7.6,0.008-11.399c0.001-0.538-0.105-1.11,0.7-1.305c2.221-0.538,2.461-0.838,2.379-3.104
	c-0.13-3.592-0.286-7.184-0.498-10.771c-0.07-1.181,0.371-1.537,1.504-1.511c2.479,0.061,4.96,0.019,7.44,0.019
	c6.719,0,13.439-0.002,20.158,0.005c0.621,0,1.235-0.11,1.49,0.798c0.411,1.47,0.976,1.815,2.539,1.832
	c1.64,0.017,3.28,0.008,4.92,0.004c2.404-0.005,3.039-0.642,3.04-3.064c0.002-9.4,0.001-18.8,0.001-28.199
	c0-0.399,0.01-0.799,0.011-1.199c0.002-0.591,0.296-0.881,0.885-0.885c0.8-0.004,1.602,0.017,2.399-0.027
	c1.383-0.076,2.138-0.813,2.205-2.188c0.051-1.037,0.017-2.079,0.02-3.119c0.004-1.817,0.003-1.817,1.833-1.879
	c1.711-0.059,2.447-0.803,2.481-2.539c0.02-0.999,0.021-2,0.003-2.999c-0.013-0.686,0.163-1.08,0.954-1.229
	c1.406-0.263,1.883-0.901,1.918-2.334c0.032-1.318,0.074-2.643-0.008-3.958c-0.074-1.185,0.315-1.637,1.549-1.614
	c1.515,0.025,2.247-0.799,2.299-2.322c0.034-0.999,0.037-2.001,0.007-2.999c-0.026-0.83,0.347-1.131,1.152-1.129
	c5,0.016,10,0.017,14.999,0c0.816-0.002,1.16,0.32,1.142,1.14c-0.028,1.319-0.019,2.64,0.001,3.96
	c0.026,1.777,0.654,2.483,2.437,2.564c0.899,0.041,1.191,0.406,1.165,1.25c-0.036,1.119-0.03,2.239,0.003,3.358
	c0.045,1.499,0.683,2.252,2.166,2.337c0.979,0.057,1.215,0.487,1.193,1.355c-0.037,1.438-0.02,2.88,0.003,4.32
	c0.018,1.122,0.517,2.021,1.663,2.174c1.097,0.146,1.28,0.72,1.21,1.627c-0.034,0.437-0.015,0.88,0,1.318
	c0.056,1.646,0.803,2.384,2.462,2.436c0.4,0.013,0.8,0.003,1.2,0.006c1.574,0.011,1.608,0.038,1.611,1.618
	c0.006,3.68-0.012,7.36,0.012,11.04c0.011,1.574,0.735,2.415,2.196,2.436c3.319,0.048,6.639,0.044,9.959,0.002
	c1.384-0.017,2.121-0.803,2.215-2.175c0.032-0.478,0.014-0.959,0.014-1.438c0.001-30.238,0.018-60.478-0.037-90.716
	c-0.003-2.118,0.405-3.837,1.903-5.41c1.007-1.059,2.221-2.138,2.212-3.851c-0.012-2.12,0.011-4.24-0.008-6.359
	c-0.01-1.139-0.51-1.966-1.601-2.441c-0.951-0.415-1.861-0.927-2.795-1.382c-0.496-0.242-0.894-0.54-0.871-1.162H316.852z
	 M586.793,156.265c-2.397,0-4.795,0.016-7.192-0.008c-0.807-0.008-1.163,0.303-1.152,1.13c0.026,1.957,0.002,3.916,0.012,5.874
	c0.002,0.519-0.034,1.13,0.743,1.1c0.776-0.031,0.672-0.665,0.678-1.165c0.019-1.398,0.051-2.798-0.005-4.195
	c-0.039-1,0.368-1.326,1.341-1.316c3.676,0.036,7.353,0.036,11.028,0c0.97-0.009,1.371,0.314,1.342,1.315
	c-0.052,1.756-0.026,3.516-0.004,5.274c0.007,0.519-0.179,1.244,0.675,1.281c0.863,0.037,0.739-0.678,0.743-1.212
	c0.016-2.276-0.021-4.556,0.02-6.833c0.016-0.937-0.353-1.273-1.274-1.259C591.43,156.29,589.111,156.264,586.793,156.265"/>
<path fill="#666666" d="M381.162,173.844c-0.419-1.772-0.287-3.577-0.273-5.37c0.006-0.82-0.281-1.16-1.118-1.129
	c-1.158,0.044-2.319,0.037-3.479,0.003c-0.76-0.022-1.12,0.26-1.069,1.045c0.028,0.438-0.005,0.88-0.017,1.319
	c-0.012,0.484-0.268,0.729-0.749,0.744c-0.08,0.002-0.159,0.012-0.239,0.012c-4.164-0.036-3.329,0.514-3.417-3.143
	c-0.027-1.12-0.021-2.24-0.003-3.359c0.011-0.661-0.276-0.939-0.935-0.932c-1.479,0.017-2.96,0.021-4.438-0.004
	c-0.711-0.013-1.044,0.269-0.999,0.991c0.02,0.317-0.025,0.641,0.002,0.959c0.076,0.888-0.333,1.192-1.199,1.184
	c-2.879-0.03-5.758-0.011-8.637-0.009c-1.683,0.002-1.683,0.004-1.686,1.737c-0.001,1.32,0.076,2.646-0.026,3.957
	c-0.079,1.015,0.334,1.164,1.218,1.188c4.114,0.106,8.226,0.282,12.339,0.44c0.224,0.009,0.489-0.07,0.728,0.269h-121.94
	c1.23-0.359,0.97-1.151,0.861-2.123c-0.522-4.636-0.985-9.282-0.79-13.96c0.023-0.553,0.153-1.106,0.282-1.648
	c0.156-0.653,0.554-1.014,1.28-1.01c2.919,0.016,5.839,0.026,8.758-0.006c1.002-0.011,1.057,0.578,1.055,1.326
	c-0.011,3.839,0.036,7.679-0.028,11.517c-0.02,1.174,0.264,1.662,1.527,1.588c1.754-0.102,3.52-0.072,5.277-0.008
	c1.022,0.038,1.291-0.369,1.286-1.332c-0.032-5.958-0.018-11.917-0.015-17.875c0.001-1.681,0.007-1.688,1.641-1.688
	c9.118-0.003,18.235-0.003,27.353,0c1.585,0.001,1.592,0.01,1.594,1.614c0.004,4.84,0,9.679,0.002,14.518
	c0.001,1.622,0.004,1.623,1.676,1.626c0.6,0.001,1.204-0.044,1.799,0.009c0.963,0.087,1.234-0.342,1.228-1.259
	c-0.031-5.159-0.007-10.317-0.02-15.477c-0.002-0.958-0.111-1.86,1.338-1.81c0.762,0.027,0.578-0.736,0.579-1.215
	c0.014-4.479,0.007-8.958,0.012-13.438c0-0.519,0.034-1.038,0.052-1.556h25.68c0.018,4.238,0.051,8.477,0.046,12.716
	c-0.002,1.118,0.099,2.083,1.435,2.393c0.651,0.15,0.481,0.758,0.485,1.205c0.017,2.479,0.038,4.96-0.006,7.438
	c-0.016,0.904,0.154,1.664,0.916,2.203c2.095,1.48,2.806,3.479,2.492,6.007c-0.181,1.458-0.012,2.956-0.037,4.437
	c-0.012,0.721,0.291,0.993,1.002,0.99c3.6-0.016,7.199-0.02,10.799,0.003c0.771,0.006,1.075-0.284,1.06-1.059
	c-0.03-1.639,0.031-3.281-0.019-4.919c-0.029-0.953,0.36-1.296,1.276-1.237c0.717,0.046,1.444-0.044,2.158,0.021
	c1.024,0.09,1.483-0.254,1.394-1.341c-0.076-0.914-0.001-1.84-0.012-2.76c-0.007-0.646,0.281-0.966,0.936-0.944
	c2.234,0.072,4.475-0.193,6.703,0.17c1.522,0.248,3.013-0.254,4.539-0.208c1.037,0.03,1.405,0.342,1.387,1.394
	c-0.039,2.421-0.336,2.233,2.248,2.235c4.959,0.005,9.919,0.032,14.878-0.021c1.17-0.013,1.77,0.289,1.575,1.538
	c-0.183,1.174,0.425,1.408,1.46,1.382c1.896-0.048,1.898-0.001,1.9,1.894c0.001,1.64,0.057,3.282-0.021,4.919
	c-0.051,1.085,0.376,1.338,1.396,1.35c7.512,0.094,15.025,0.043,22.538,0.122c8.064,0.085,16.143-0.142,24.215-0.127
	c0.974,0.002,1.247-0.373,1.215-1.278c-0.051-1.438,0.013-2.88-0.019-4.318c-0.019-0.812,0.288-1.147,1.121-1.146
	c6.438,0.021,12.884-0.145,19.315,0.077c3.516,0.121,7.04,0.293,10.536,0.104c4.318-0.235,8.629-0.046,12.938-0.185
	c1.046-0.032,1.707,0.06,1.361,1.418c-0.325,1.273-0.306,2.607-0.287,3.93c0.013,0.81,0.323,1.158,1.145,1.146
	c3.72-0.053,3.013,0.438,3.068-2.872c0.037-2.199,0.04-4.399-0.006-6.599c-0.021-0.958,0.279-1.351,1.293-1.347
	c8.479,0.027,16.958,0.025,25.438,0.002c0.948-0.002,1.271,0.354,1.243,1.272c-0.047,1.519,0.016,3.04-0.021,4.56
	c-0.019,0.8,0.236,1.162,1.093,1.15c2.561-0.035,5.12-0.018,7.68-0.01c0.633,0.002,0.929-0.124,0.802-0.905
	c-0.196-1.215-0.256-2.457-0.288-3.689c-0.023-0.929,0.393-1.43,1.459-1.422c5.84,0.037,11.679,0.035,17.518,0.002
	c1.031-0.008,1.313,0.418,1.278,1.361c-0.05,1.358,0.014,2.721-0.019,4.079c-0.02,0.772,0.283,1.077,1.058,1.062
	c1.56-0.032,3.12-0.021,4.68-0.001c1.198,0.014,1.443,0.271,1.057,1.34c-1.323,3.656-0.034,3.234,2.503,3.219
	c3.24-0.022,6.479-0.037,9.719,0.012c1.006,0.016,1.325-0.343,1.297-1.321c-0.055-1.998,0.019-4-0.029-5.998
	c-0.022-0.954,0.269-1.387,1.289-1.353c1.759,0.059,3.521,0.052,5.279,0.002c0.947-0.025,1.312,0.349,1.241,1.271
	c-0.042,0.556,0.051,1.126-0.017,1.677c-0.125,1.008,0.505,1.268,1.275,1.331c1.007,0.083,0.76-0.718,0.773-1.262
	c0.052-2.285,0.041-2.268,2.317-2.291c2.465-0.026,4.93,0.322,7.394,0.008c1.061-0.136,1.568,0.266,1.464,1.4
	c-0.07,0.754,0.001,1.52-0.01,2.278c-0.01,0.598,0.255,0.882,0.862,0.876c1.28-0.01,2.561-0.021,3.84,0.007
	c0.757,0.017,0.927-0.371,0.953-1.042c0.096-2.326,0.125-2.466,2.439-2.281c2.357,0.186,4.691-0.13,7.036-0.038
	c1.94,0.074,2.025,0.205,2.172,2.094c0.089,1.153,0.26,2.298,0.226,3.459c-0.017,0.576,0.261,0.904,0.859,0.914
	c0.04,0.001,0.08,0.001,0.12,0.005c3.969,0.423,3.429,0.728,3.456-3.107c0.016-2.239,0.026-4.479-0.006-6.719
	c-0.014-0.857,0.277-1.226,1.175-1.217c3.278,0.031,6.559,0.028,9.839,0.003c0.841-0.006,1.118,0.353,1.111,1.154
	c-0.023,2.639,0.029,5.279-0.023,7.918c-0.021,1.088,0.379,1.503,1.461,1.512c1.219,0.009,2.365-0.336,3.543-0.524
	c0.645-0.102,0.658-0.606,0.659-1.101c0.004-1.6,0.037-3.201-0.007-4.8c-0.024-0.905,0.27-1.291,1.23-1.285
	c4.999,0.032,9.999,0.028,14.999,0.003c0.891-0.004,1.196,0.347,1.182,1.211c-0.036,1.959,0.026,3.92-0.025,5.879
	c-0.026,0.959,0.256,1.34,1.28,1.337c9.438-0.03,18.878-0.03,28.316,0c1.021,0.003,1.317-0.372,1.283-1.335
	c-0.056-1.598,0.005-3.199-0.018-4.799c-0.012-0.751,0.272-1.097,1.052-1.086c1.759,0.025,3.521,0.021,5.279,0.003
	c0.729-0.007,0.991,0.342,0.981,1.03c-0.016,1.24,0.02,2.479-0.004,3.72c-0.013,0.701,0.25,0.994,0.979,1.018
	c4.19,0.134,8.387,0.428,12.575,0.203c8.432-0.451,16.865-0.066,25.297-0.213c0.806-0.014,1.533-0.04,1.481,1.138
	c-0.063,1.419-0.349,1.833-1.544,1.855c-0.479,0.01-0.96,0.003-1.439,0.003c-110.87,0-221.739,0-332.609,0
	C382.763,173.839,381.963,173.842,381.162,173.844 M301.785,163.75c0,2.759,0.009,5.518-0.008,8.278
	c-0.004,0.575-0.006,0.982,0.782,0.985c8.316,0.037,16.633-0.055,24.946,0.228c0.66,0.021,0.89-0.147,0.848-0.878
	c-0.213-3.702-0.358-7.407-0.532-11.11c-0.009-0.198-0.058-0.394-0.087-0.591c-0.104-0.695-0.443-1.033-1.207-1
	c-1.237,0.053-2.479,0.013-3.718,0.013c-3.253-0.001-3.368,0.347-2.971,3.692c0.442,3.716,1.303,3.192-2.713,3.281
	c-1.007,0.021-1.314-0.372-1.302-1.339c0.04-3.198-0.013-6.398,0.03-9.597c0.013-0.96-0.259-1.349-1.282-1.337
	c-3.839,0.048-7.679,0.048-11.517,0c-1.023-0.012-1.3,0.375-1.283,1.336C301.817,158.391,301.788,161.071,301.785,163.75
	 M276.958,162.076c-2.16,0-4.322,0.05-6.479-0.021c-1.082-0.036-1.372,0.368-1.351,1.395c0.056,2.759,0.087,5.521-0.014,8.279
	c-0.042,1.128,0.348,1.29,1.344,1.305c7.955,0.111,15.91,0.275,23.864,0.438c0.8,0.017,1.386-0.005,1.381-1.097
	c-0.006-1.001-0.43-1.203-1.309-1.192c-2.839,0.035-5.68-0.014-8.519,0.025c-0.944,0.013-1.269-0.343-1.25-1.268
	c0.043-2.079,0.014-4.159,0.011-6.239c-0.002-1.618-0.004-1.622-1.558-1.624C281.038,162.073,278.998,162.076,276.958,162.076"/>
<path fill="#666666" d="M99.412,174.02c-0.437-3.003-0.493-6.032-0.651-9.056c-0.08-1.524-0.086-3.034,0.147-4.543
	c0.163-1.063,0.678-1.607,1.841-1.591c3.319,0.045,6.639,0.039,9.958,0.002c0.939-0.012,1.266,0.335,1.253,1.263
	c-0.039,2.719,0.037,5.439-0.036,8.158c-0.03,1.137,0.382,1.479,1.457,1.408c1.115-0.075,2.239-0.036,3.359-0.012
	c0.733,0.017,1.063-0.104,0.923-1.019c-0.222-1.451-0.409-2.922-0.311-4.409c0.058-0.868,0.385-1.323,1.319-1.304
	c1.599,0.034,3.2,0.037,4.798-0.003c0.866-0.021,1.23,0.294,1.208,1.183c-0.04,1.639,0.019,3.28-0.02,4.919
	c-0.02,0.833,0.302,1.152,1.127,1.116c0.998-0.043,2-0.038,2.999-0.002c0.772,0.027,1.084-0.281,1.059-1.058
	c-0.072-2.229-0.11-2.059,2.214-2.068c0.24-0.001,0.482,0.021,0.72-0.002c0.926-0.094,1.271,0.3,1.268,1.239
	c-0.006,1.75,1.037,2.411,2.725,1.848c0.584-0.196,0.499-0.66,0.501-1.081c0.01-2.601,0.038-5.2-0.009-7.799
	c-0.018-0.997,0.246-1.441,1.341-1.426c3.639,0.055,7.279,0.046,10.918,0.006c0.986-0.012,1.366,0.325,1.321,1.318
	c-0.059,1.277,0.008,2.56-0.02,3.838c-0.016,0.73,0.198,1.111,1.013,1.105c3.28-0.025,6.559-0.033,9.838,0.007
	c0.886,0.01,0.905-0.46,0.764-1.062c-0.272-1.169-0.533-2.335-0.428-3.549c0.075-0.867,0.425-1.434,1.413-1.403
	c3.751,0.114,7.509-0.223,11.259,0.205c0.805,0.092,1.037,0.362,1.146,1.151c0.365,2.631,0.158,5.269,0.18,7.901
	c0.009,0.975,0.33,1.206,1.296,1.342c3.56,0.501,7.097-0.237,10.642-0.034c0.885,0.052,1.286-0.293,1.169-1.176
	c-0.154-1.169,0.367-1.519,1.503-1.491c2.718,0.065,5.439,0.022,8.158,0.021c1.618-0.002,1.619-0.005,1.622-1.682
	c0.002-0.72,0.035-1.44-0.006-2.158c-0.049-0.865,0.288-1.242,1.179-1.208c1.158,0.044,2.319,0.009,3.479,0.009
	c12.318-0.001,24.635-0.001,36.953,0c1.701,0.001,1.588,0.001,1.519,1.718c-0.106,2.635-0.032,5.277-0.054,7.917
	c-0.004,0.489,0.315,0.776,0.677,1.089c-0.639,0.323-1.203,0.189-1.743,0.189c-46.912,0.008-93.823,0.007-140.735,0.013
	c-0.672,0-1.362-0.124-2.013,0.169H99.412z"/>
<path fill="#666666" d="M19.251,162.5c3.596-0.02,7.192-0.078,10.787-0.032c1.124,0.015,1.429-0.367,1.42-1.449
	c-0.025-2.987-0.415-2.626,2.69-2.652c1.199-0.011,2.398,0.017,3.597-0.002c0.801-0.012,1.031,0.347,0.938,1.12
	c-0.434,3.61-0.461,7.238-0.412,10.868c0.011,0.835,0.366,1.209,1.24,1.222c3.031,0.046,6.061,0.182,9.092,0.206
	c1.51,0.013,3.022-0.17,4.535-0.212c0.817-0.022,0.86-0.521,0.859-1.129c-0.006-2.717,0.039-5.436-0.021-8.151
	c-0.024-1.105,0.269-1.564,1.467-1.547c4.195,0.061,8.392,0.052,12.588,0.005c1.081-0.013,1.51,0.319,1.453,1.434
	c-0.074,1.475,0.013,2.957-0.028,4.435c-0.022,0.83,0.298,1.134,1.124,1.12c2.157-0.034,4.317,0.027,6.473-0.024
	c1.003-0.025,1.333,0.356,1.309,1.332c-0.041,1.594,0.022,3.19-0.242,4.772c-19.181,0.009-38.361,0.014-57.542,0.043
	c-0.806,0.001-1.159-0.341-1.327-1.038V162.5z"/>
</svg>
